<?xml version="1.0" encoding="UTF-8" standalone="no"?>
<svg
   xmlns:dc="http://purl.org/dc/elements/1.1/"
   xmlns:cc="http://creativecommons.org/ns#"
   xmlns:rdf="http://www.w3.org/1999/02/22-rdf-syntax-ns#"
   xmlns:svg="http://www.w3.org/2000/svg"
   xmlns="http://www.w3.org/2000/svg"
   xmlns:sodipodi="http://sodipodi.sourceforge.net/DTD/sodipodi-0.dtd"
   xmlns:inkscape="http://www.inkscape.org/namespaces/inkscape"
   version="1.0"
   width="2179.000000pt"
   height="836.000000pt"
   viewBox="0 0 2179.000000 836.000000"
   preserveAspectRatio="xMidYMid meet"
   id="svg2"
   inkscape:version="0.48.4 r9939"
   sodipodi:docname="Logo ohne Schrift - Editiert.svg">
  <defs
     id="defs44" />
  <sodipodi:namedview
     pagecolor="#ffffff"
     bordercolor="#666666"
     borderopacity="1"
     objecttolerance="10"
     gridtolerance="10"
     guidetolerance="10"
     inkscape:pageopacity="0"
     inkscape:pageshadow="2"
     inkscape:window-width="1920"
     inkscape:window-height="1138"
     id="namedview42"
     showgrid="false"
     inkscape:zoom="0.29699134"
     inkscape:cx="1821.0544"
     inkscape:cy="708.27172"
     inkscape:window-x="-8"
     inkscape:window-y="-8"
     inkscape:window-maximized="1"
     inkscape:current-layer="svg2" />
  <metadata
     id="metadata4">
Created by potrace 1.11, written by Peter Selinger 2001-2013
<rdf:RDF>
  <cc:Work
     rdf:about="">
    <dc:format>image/svg+xml</dc:format>
    <dc:type
       rdf:resource="http://purl.org/dc/dcmitype/StillImage" />
  </cc:Work>
</rdf:RDF>
</metadata>
  <g
     transform="translate(0.000000,836.000000) scale(0.100000,-0.100000)"
     fill="#000000"
     stroke="none"
     id="g6">
    <path
       d="M15845 8323 c-16 -8 -31 -17 -33 -18 -3 -2 256 -556 263 -564 8 -7 85 31 85 43 0 5 -57 133 -127 283 -84 179 -133 272 -143 272 -8 0 -28 -7 -45 -16z"
       id="path8" />
    <path
       d="M17012 7886 c-128 -112 -238 -208 -244 -214 -7 -7 -2 -21 17 -46 15 -20 30 -36 34 -36 6 0 346 291 464 397 l38 34 -28 34 c-15 18 -32 34 -38 34 -5 0 -115 -92 -243 -203z"
       id="path10" />
    <path
       d="M15220 7292 l0 -50 103 -6 c56 -3 176 -11 267 -16 91 -6 186 -10 212 -10 l47 0 7 45 c3 25 5 47 3 49 -2 2 -105 9 -229 15 -124 6 -267 14 -317 18 l-93 6 0 -51z"
       id="path12" />
    <path
       d="m 16297,7301 c -62,-57 -64,-61 -77,-167 -7,-49 -31,-187 -55,-307 l -43,-218 -87,-132 c -299,-450 -659,-977 -669,-977 -6,0 -26,4 -44,9 -30,9 -50,1 -245,-97 -322,-163 -555,-244 -830,-289 l -159,-25 -121,22 c -150,27 -347,76 -407,102 -53,23 -90,55 -90,77 1,9 13,54 29,100 l 27,85 80,23 c 54,17 87,33 105,52 39,42 72,135 77,216 3,64 1,73 -26,113 -16,24 -40,51 -54,60 -15,10 -54,55 -87,102 -33,47 -91,119 -129,160 -37,41 -81,92 -97,113 -88,118 -353,247 -506,247 -127,0 -311,-73 -417,-166 -71,-62 -110,-122 -136,-208 l -22,-71 c -126.134,0 -236.655,0 -364,0 1.166,-322.6856 0.932,-645.372 0.893,-968.0589 122.39,55.1902 128.732,58.4375 189.107,86.0589 l 0,344 0,342 c 66.225,0.4086 112.097,0.8547 195,0 l 18,-39 c 10,-22 45,-74 78,-117 32,-42 59,-84 59,-94 0,-48 23,-75 105,-129 47,-30 85,-61 85,-69 0,-8 -13,-57 -30,-110 l -29,-96 -277,-63 c -180.138,-40.4213 -248.493,-49.2195 -368,-130 -50,-37 -138,-99 -195,-136 -178,-118 -378,-286 -501,-422 -109,-120 -180,-250 -188,-341 -9,-104 61,-273 199,-481 53,-80 80,-112 94,-112 80,-1 470,-41 478,-49 11,-11 27,-106 78,-471 34,-246 35,-349 4,-430 -10,-25 -54,-99 -98,-164 -44,-66 -93,-147 -108,-180 -80,-171 -95,-367 -55,-706 14,-118 38,-415 52,-660 l 27,-445 -25,-138 -25,-138 20,-74 20,-75 201,0 201,0 35,66 c 19,36 41,71 50,78 27,25 91,35 304,52 170,13 227,14 310,4 84,-9 397,-69 459,-86 13,-4 17,-16 17,-58 l 0,-53 163,-7 c 89,-3 216,-7 282,-8 l 120,-3 3,32 c 2,20 -16,87 -47,174 l -51,142 61,101 c 34,57 69,132 80,171 30,103 195,622 315,990 153,471 184,606 184,796 0,169 -31,226 -193,352 -141,110 -169,150 -245,352 -39,103 -71,313 -79,518 l -6,157 27,0 c 35,0 53,42 73,165 39,250 45,276 69,305 59,69 904,521 1178,630 147,58 142,53 302,326 48,82 129,214 179,294 116,183 214,358 364,652 135,266 159,332 203,554 26,132 32,190 35,344 3,102 3,199 1,215 l -3,30 z m -3242,-882 c 34,-17 51,-32 53,-47 3,-22 1,-22 -65,-16 -41,4 -100,1 -143,-6 -219,-37 -368,-168 -415,-365 l -12,-50 -13,45 c -58,205 47,380 268,447 110,33 255,29 327,-8 z m -381,-4412 99,-2 -2,-145 c -2,-147 -15,-688 -27,-1123 -4,-130 -9,-237 -12,-237 -16,0 -310,-31 -324,-34 -20,-4 -20,1 -43,384 -18,309 -19,420 -5,558 12,116 75,516 90,571 l 10,37 57,-3 c 32,-2 103,-4 157,-6 z m 822,-238 c -58,-208 -70,-272 -115,-574 -61,-410 -101,-711 -101,-752 0,-16 -2,-32 -5,-35 -3,-3 -43,4 -88,14 -45,11 -122,26 -172,32 l -90,12 3,39 c 1,22 11,175 22,340 17,266 34,574 56,1007 l 6,137 77,7 c 112,10 466,20 469,13 2,-4 -26,-112 -62,-240 z"
       id="path14"
       inkscape:connector-curvature="0"
       sodipodi:nodetypes="cccccsccccccccccccccsccscccccccccccscscccccccccsccccccccccccccccccsccccccccccsccccsccccccccccccccccccccccccscccccccccsscccccccccc" />
    <path
       d="M16526 7158 c-11 -164 -7 -384 9 -463 41 -198 90 -317 327 -795 127 -256 253 -512 281 -569 78 -160 110 -190 414 -376 141 -87 295 -178 342 -204 109 -59 157 -105 168 -163 l8 -43 145 -36 c131 -32 217 -66 261 -101 30 -25 79 -102 90 -141 6 -23 55 -255 110 -516 75 -360 103 -479 116 -489 16 -12 14 -20 -32 -110 l-50 -97 -295 -51 c-162 -29 -317 -60 -345 -69 -190 -66 -380 -297 -416 -504 -12 -66 -38 46 241 -1046 77 -302 145 -571 152 -597 10 -39 9 -55 -5 -99 -10 -28 -26 -99 -38 -158 -39 -203 -57 -254 -105 -311 -40 -47 -44 -56 -44 -106 l0 -54 219 0 219 0 158 91 157 91 111 9 c556 42 620 43 769 23 l47 -7 0 39 c0 22 9 72 19 113 l20 73 -70 32 -69 31 0 45 c0 110 31 1232 36 1296 l5 71 231 7 c127 3 233 5 235 3 2 -3 -8 -105 -23 -228 -23 -199 -39 -278 -141 -709 -66 -282 -112 -494 -108 -508 3 -12 -8 -102 -25 -200 -23 -129 -30 -191 -25 -232 l6 -55 87 3 c48 1 165 5 260 8 l172 6 0 42 c0 22 -11 89 -24 148 l-23 106 93 259 c51 142 156 436 234 653 l142 395 65 365 64 365 -6 235 -6 235 55 200 c31 110 60 209 65 221 6 14 29 27 68 38 51 16 71 31 170 129 146 144 145 141 133 462 -10 234 -18 308 -44 400 -23 77 -52 112 -145 177 l-84 58 -54 111 c-46 95 -66 123 -131 188 -90 89 -178 139 -366 207 -177 65 -216 103 -257 246 -16 55 -24 108 -23 158 0 65 5 87 42 170 62 143 62 157 7 270 -64 130 -104 181 -185 235 -90 60 -195 97 -349 125 -140 24 -150 23 -301 -26 -80 -26 -117 -44 -158 -78 -73 -59 -130 -131 -136 -169 -16 -101 -29 -162 -52 -247 -21 -78 -27 -124 -31 -260 l-5 -165 78 -48 c98 -59 103 -63 138 -109 18 -25 25 -42 19 -52 -13 -24 -84 -76 -146 -107 -219 -111 -427 -70 -1071 214 l-260 114 -184 194 c-160 169 -217 239 -446 549 l-263 355 -36 115 c-31 95 -42 159 -67 370 -17 140 -33 265 -35 277 -5 22 -61 63 -87 63 -12 0 -16 -20 -22 -92z m2479 -5233 c132 -8 255 -18 274 -21 l33 -5 -7 -457 c-4 -251 -10 -546 -14 -656 l-6 -199 -145 -44 c-300 -92 -334 -102 -338 -99 -7 7 -133 571 -157 701 -31 171 -43 302 -51 579 l-7 229 89 -6 c49 -4 197 -13 329 -22z"
       id="path16" />
    <path
       d="m 2362,6159 c -37,-21 -42,-21 -469,-20 l -433,2 c -0.1181,-391.7656 8.2113,-808.0219 13,-1130 59.7601,43.4481 130.4643,80.7235 187,109 -3.6011,276.6784 -8.3334,553.3383 -13,830 163.0259,-0.702 344.8846,-3.2988 503,-5 -24.2297,-78.7104 -49.7664,-160.5196 -60,-245 -16,-120 -15,-120 -40,-120 -51,0 -95,-168 -83,-322 5,-79 4,-88 -11,-88 -13,0 -16,-5 -11,-19 5,-17 -1,-22 -37,-31 -97,-26 -226,-73 -290,-107 -77,-40 -120,-83 -283,-284 C 1195,4557 929,4242 821,4120 725,4012 687,3939 663,3823 l -16,-78 33,-78 c 17,-43 38,-84 45,-91 7,-7 60,-20 117,-30 92,-16 122,-17 238,-7 73,6 152,11 175,11 l 41,0 18,-122 c 15,-101 87,-572 161,-1049 20,-128 20,-139 -5,-139 -24,0 -86,-38 -118,-72 -25,-28 -42,-77 -42,-124 0,-23 6,-34 25,-42 14,-7 32,-12 39,-12 8,0 24,-8 36,-18 l 21,-17 -15,-375 C 1391,986 1380,649 1380,459 l 0,-177 25,-6 25,-6 0,-127 0,-126 256,6 c 142,4 258,8 260,10 3,2 -5,68 -20,184 -4,25 0,33 15,38 10,4 19,13 19,20 0,18 12,20 310,46 350,31 419,23 790,-91 107,-33 209,-62 227,-66 28,-5 34,-13 48,-55 l 17,-49 84,0 84,0 0,60 c 0,94 18,87 -690,295 -162,48 -303,91 -312,96 -15,8 -16,21 -13,92 3,45 9,305 15,577 6,272 13,563 16,646 l 6,150 231,12 c 128,7 318,16 422,22 105,5 218,12 253,14 61,5 62,5 62,-19 0,-16 6,-25 16,-25 12,0 15,-6 10,-26 -16,-61 -67,-513 -76,-664 -5,-92 -7,-312 -3,-498 l 6,-333 47,-24 c 54,-28 66,-51 73,-144 3,-35 11,-67 18,-71 9,-6 10,-29 6,-84 l -5,-76 294,0 c 184,0 294,4 294,10 0,5 -11,53 -25,107 -14,54 -25,104 -25,110 0,7 15,33 34,57 37,49 56,114 55,191 0,28 -3,453 -7,945 l -7,895 -36,70 c -86,164 -192,271 -429,431 -148,100 -160,110 -160,138 0,44 29,473 36,524 l 5,42 272,-5 c 150,-3 391,-7 536,-10 l 263,-5 -6,26 c -19,73 -110,166 -210,214 -34,16 -124,47 -201,70 -77,23 -153,46 -168,52 -45,17 -91,80 -168,231 -79,156 -128,226 -282,404 -56,65 -132,156 -169,202 -66,82 -67,85 -47,99 11,8 18,20 15,28 -3,7 3,18 14,24 51,27 110,203 110,326 0,47 -5,67 -21,88 -17,22 -22,52 -35,218 -16,220 -23,257 -64,339 -17,32 -30,61 -30,64 0,3 156,4 348,3 l 347,-3 3,-817 2,-818 c -62.9385,0 -127.9497,0 -187.1551,0 48.9808,-94.0456 80.66,-155.3321 132.1551,-255 75.037,0 149.5338,0 225,0 l 0,1035 0,1040 -530,0 -531,0 c -284.2882,143.4706 -616.8351,170.1298 -887,29 z m 480,-60 c 88,-18 341,-99 378,-122 19,-11 53,-23 74,-26 33,-5 45,-14 72,-54 59,-85 93,-244 94,-429 0,-74 -3,-76 -57,-57 -19,6 -30,17 -29,27 1,11 -5,16 -16,14 -13,-2 -18,8 -22,45 -28,228 -56,321 -114,382 -31,33 -56,45 -162,79 -205,66 -248,75 -345,75 -108,0 -175,-23 -263,-87 -78,-58 -127,-127 -175,-249 -21,-56 -44,-108 -49,-114 -6,-7 -24,-13 -40,-13 -29,0 -30,1 -23,43 15,96 39,177 76,255 37,76 42,82 70,82 22,0 44,12 74,38 55,48 128,88 196,106 65,18 189,20 261,5 z m -598,-4175 99,-7 -6,-685 c -3,-376 -8,-686 -10,-689 -4,-3 -93,-15 -274,-37 l -41,-5 -21,90 c -27,117 -26,178 4,342 34,186 45,354 45,706 l 0,303 53,-6 c 28,-3 97,-9 151,-12 z"
       id="path18"
       inkscape:connector-curvature="0"
       sodipodi:nodetypes="ccccccccscsccccccccsccscccscscscccscccccccccscccccccscccscccccsscccccccccssssccccccscccccccscccccccscccscccccccccccccccccccccccscccsccscccccccccccsccc" />
    <path
       d="M19975 6207 c51 -37 125 -110 143 -139 l16 -28 135 0 134 0 -4 -456 -4 -456 89 -39 c50 -21 91 -37 92 -36 2 1 6 267 10 590 l7 587 -324 0 -324 -1 30 -22z"
       id="path20" />
    <path
       d="M17740 5800 l0 -421 83 -38 82 -38 5 366 5 366 507 5 506 5 23 30 c12 17 47 56 78 88 l55 57 -672 0 -672 0 0 -420z"
       id="path22" />
    <path
       d="m 7704,6186 c -50,-13 -118,-38 -152,-55 l -61,-31 -551,0 -550,0 c 0,-533.9972 0,-1115.6265 0,-1583 44.2281,44.2281 126.7819,128.2222 190,191.4403 0,412.5236 0,805.7024 0,1201.5597 l 356,0 c 196,0 354,-3 352,-7 -2,-5 -18,-37 -36,-72 -38,-71 -65,-186 -82,-341 -7,-58 -21,-145 -33,-195 -12,-56 -21,-137 -24,-214 l -3,-125 -109,-56 c -59,-31 -139,-77 -177,-102 -84,-56 -216,-167 -245,-208 -12,-16 -81,-84 -153,-151 -207,-194 -248,-244 -324,-399 -36,-74 -82,-160 -102,-190 -77,-115 -86,-159 -50,-239 l 20,-44 275,6 c 151,4 275,6 276,5 0,-2 11,-128 23,-282 l 24,-278 -20,-162 c -24,-196 -20,-341 11,-433 27,-80 400,-864 546,-1148 72,-140 116,-238 120,-267 10,-63 -18,-123 -81,-174 C 6997,715 6969,678 6928,553 6891,441 6856,414 6668,351 l -155,-52 -6,-101 c -4,-56 -5,-103 -3,-105 1,-2 63,-6 138,-9 l 134,-7 24,63 23,62 106,-7 106,-7 46,-45 c 47,-45 47,-45 85,-33 28,9 76,49 174,145 120,118 145,138 227,179 l 93,46 152,-47 153,-47 137,-128 c 76,-70 141,-128 145,-128 4,0 44,31 88,68 l 80,69 114,-36 113,-36 24,-46 23,-46 78,5 c 43,2 80,6 82,8 2,2 5,43 5,90 l 1,86 -140,62 c -130,57 -140,64 -143,91 -7,56 -76,142 -273,340 l -198,200 136,120 c 197,173 447,424 541,543 129,163 253,341 294,422 80,157 130,359 130,525 1,133 -14,201 -81,367 -27,68 -57,148 -66,178 -9,30 -23,71 -32,90 -11,25 -17,85 -21,219 l -5,183 164,-6 c 90,-3 230,-9 311,-12 l 147,-6 27,43 c 80,127 93,207 49,295 -14,27 -64,94 -111,149 -147,171 -576,617 -621,645 -24,15 -109,56 -189,91 -117,51 -146,68 -150,86 -7,26 10,102 62,271 19,62 34,134 34,159 0,40 -5,51 -38,83 -39,36 -39,36 -45,137 -5,78 -15,124 -43,204 -20,57 -40,112 -45,122 -9,16 6,17 251,17 l 260,0 0,-572 1,-573 89,-92 90,-92 0,755 0,754 -448,0 c -360,0 -451,3 -467,14 -36,24 -179,76 -253,91 -110,23 -259,19 -368,-9 z m 343,-127 c 126,-28 234,-74 273,-114 25,-26 42,-35 67,-35 27,0 36,-6 57,-42 24,-42 49,-141 80,-307 20,-105 20,-101 -8,-101 -34,0 -56,25 -56,65 0,123 -145,358 -251,404 -80,36 -223,72 -304,78 -64,4 -102,0 -192,-20 -62,-14 -128,-33 -148,-43 -85,-40 -138,-151 -174,-368 -11,-63 -24,-112 -32,-117 -15,-9 -89,-23 -93,-17 -6,6 13,139 30,206 22,90 81,215 133,279 50,63 109,96 226,124 173,41 244,42 392,8 z m 87,-4196 c -75,-87 -138,-160 -140,-162 -2,-2 -4,68 -4,157 l 0,162 140,0 140,0 z m -370,115 c 3,-18 10,-118 15,-223 l 10,-190 -41,-72 c -23,-40 -43,-72 -44,-70 -5,4 -194,569 -194,578 0,5 56,9 125,9 l 124,0 z"
       id="path24"
       inkscape:connector-curvature="0"
       sodipodi:nodetypes="ccccccccsccccccccccccccccccccccscccccccccccccccccccscccccccscccccccccccscccccccccccccsccccscccccccscccccsccssccccccccccccsscccccccccsscc" />
    <path
       d="m 13835,5930 c 261.667,0 523.333,0 785,0 0,-192.7856 0,-446.5454 0,-630 58.097,19.8402 103.276,36.002 180,62 0,256.238 0,505.3333 0,758 -400.085,0 -736.984,0 -1131,0 61.545,-63.9259 101.693,-113.3494 166,-190 z"
       id="path26"
       inkscape:connector-curvature="0"
       sodipodi:nodetypes="ccccccc" />
    <path
       d="M17740 4447 l0 -304 388 -9 c213 -5 389 -8 391 -7 11 8 -22 131 -45 171 -14 23 -43 54 -65 69 -39 25 -42 26 -269 31 l-230 5 0 128 0 127 -77 44 c-43 23 -81 45 -85 46 -5 2 -8 -133 -8 -301z"
       id="path28" />
    <path
       d="M14705 4575 l-80 -44 -3 -115 -3 -116 -204 0 c-276 0 -279 -2 -304 -181 -5 -35 -8 -65 -7 -65 0 -1 157 -4 349 -7 l347 -7 0 290 c0 160 -3 290 -7 289 -5 0 -44 -20 -88 -44z"
       id="path30" />
    <path
       d="M14258 3733 l-258 -3 0 -93 c1 -150 41 -374 90 -502 24 -60 47 -116 53 -122 15 -20 3863 -18 3927 1 25 7 169 35 321 62 l277 48 24 49 24 49 -47 216 c-25 120 -49 233 -53 253 l-6 36 -658 -4 c-361 -3 -662 -6 -668 -8 -6 -2 -14 -46 -18 -105 -3 -56 -9 -106 -12 -111 -3 -5 -403 -9 -924 -9 l-919 0 -17 31 c-23 46 -92 117 -140 145 -60 35 -168 64 -241 64 -75 0 -159 -29 -196 -68 -30 -31 -57 -100 -57 -144 l0 -29 -72 3 -73 3 -5 120 -5 120 -45 0 c-25 1 -161 -1 -302 -2z"
       id="path32" />
    <path
       d="M20 3245 l0 -245 640 0 c352 0 640 4 640 8 0 9 -55 381 -65 438 -4 25 -9 31 -28 28 -12 -2 -78 -8 -147 -13 -107 -8 -140 -7 -229 10 -91 16 -153 19 -458 19 l-353 0 0 -245z"
       id="path34" />
    <path
       d="m 3696,3463 c -3,-16 -11,-120 -18,-232 -11,-196 -11,-204 7,-217 48.0448,0 2758.4987,-1 2805,-1 -12.2597,175.4597 -20.1703,288.2653 -34,477 -918,0 -1836,0 -2754,0 z"
       id="path36"
       inkscape:connector-curvature="0"
       sodipodi:nodetypes="ccccccc" />
    <path
       d="m 9083,3388 c 4,-105 34,-227 85,-340 l 21,-48 c 318.203,0 2507.186,0 2681,0 -16.574,193.8302 -39.194,310.3012 -63,490 -993.026,0 -1947.4069,0.068 -2728,0 z"
       id="path38"
       inkscape:connector-curvature="0"
       sodipodi:nodetypes="ccccccc" />
    <path
       d="M21092 3387 c-86 -86 -112 -106 -158 -122 -30 -10 -57 -22 -60 -26 -6 -11 -64 -216 -64 -229 0 -6 170 -10 480 -10 l480 0 0 245 0 245 -288 0 -287 0 -103 -103z"
       id="path40" />
  </g>
</svg>
